<?xml version="1.0" encoding="UTF-8" standalone="no"?>
<svg width="1200" height="675" viewBox="0 0 1200 675" xmlns="http://www.w3.org/2000/svg">
  <rect width="1200" height="675" fill="#121212"/>
  
  <!-- Background gradient -->
  <defs>
    <linearGradient id="grad1" x1="0%" y1="0%" x2="100%" y2="100%">
      <stop offset="0%" style="stop-color:#3a1c71;stop-opacity:1" />
      <stop offset="50%" style="stop-color:#d76d77;stop-opacity:1" />
      <stop offset="100%" style="stop-color:#ffaf7b;stop-opacity:1" />
    </linearGradient>
  </defs>
  <rect width="1200" height="675" fill="url(#grad1)" opacity="0.7"/>
  
  <!-- Subtle grid pattern -->
  <pattern id="grid" width="30" height="30" patternUnits="userSpaceOnUse">
    <path d="M 30 0 L 0 0 0 30" fill="none" stroke="rgba(255,255,255,0.1)" stroke-width="1"/>
  </pattern>
  <rect width="1200" height="675" fill="url(#grid)"/>
  
  <!-- Title -->
  <text x="600" y="150" font-family="Arial, sans-serif" font-size="60" font-weight="bold" text-anchor="middle" fill="white">
    Dev Update
  </text>
  
  <!-- Subtitle -->
  <text x="600" y="220" font-family="Arial, sans-serif" font-size="40" font-weight="normal" text-anchor="middle" fill="white">
    March 24 - April 21, 2025
  </text>
  
  <!-- Decorative elements -->
  <circle cx="300" cy="500" r="100" fill="none" stroke="rgba(255,255,255,0.3)" stroke-width="2"/>
  <circle cx="900" cy="400" r="150" fill="none" stroke="rgba(255,255,255,0.3)" stroke-width="2"/>
  
  <!-- Highlight boxes for major updates -->
  <rect x="150" y="300" width="280" height="50" rx="25" ry="25" fill="rgba(255,255,255,0.2)"/>
  <text x="290" y="335" font-family="Arial, sans-serif" font-size="24" text-anchor="middle" fill="white">Vibe Compiler</text>
  
  <rect x="460" y="300" width="280" height="50" rx="25" ry="25" fill="rgba(255,255,255,0.2)"/>
  <text x="600" y="335" font-family="Arial, sans-serif" font-size="24" text-anchor="middle" fill="white">Vibe Pong</text>
  
  <rect x="770" y="300" width="280" height="50" rx="25" ry="25" fill="rgba(255,255,255,0.2)"/>
  <text x="910" y="335" font-family="Arial, sans-serif" font-size="24" text-anchor="middle" fill="white">Vibe Server</text>
  
  <rect x="460" y="380" width="280" height="50" rx="25" ry="25" fill="rgba(255,255,255,0.2)"/>
  <text x="600" y="415" font-family="Arial, sans-serif" font-size="24" text-anchor="middle" fill="white">NearFS</text>
  
  <!-- Author -->
  <text x="600" y="600" font-family="Arial, sans-serif" font-size="30" text-anchor="middle" fill="white">@vgrichina</text>
</svg>