<?xml version="1.0" encoding="UTF-8" standalone="no"?>
<svg width="1200" height="628" viewBox="0 0 1200 628" fill="none" xmlns="http://www.w3.org/2000/svg">
  <!-- Background with purple/pink gradient -->
  <rect width="1200" height="628" fill="url(#gradient)"/>
  
  <!-- Decorative elements suggesting code/development -->
  <g opacity="0.15" fill="white">
    <!-- Code brackets -->
    <path d="M100 150 L150 100 L130 80 L60 150 L130 220 L150 200 Z" />
    <path d="M1100 150 L1050 100 L1070 80 L1140 150 L1070 220 L1050 200 Z" />
    
    <!-- Code lines -->
    <rect x="200" y="100" width="300" height="10" rx="5" />
    <rect x="200" y="130" width="250" height="10" rx="5" />
    <rect x="200" y="160" width="350" height="10" rx="5" />
    <rect x="200" y="190" width="280" height="10" rx="5" />
    
    <rect x="700" y="100" width="300" height="10" rx="5" />
    <rect x="700" y="130" width="250" height="10" rx="5" />
    <rect x="700" y="160" width="350" height="10" rx="5" />
    <rect x="700" y="190" width="280" height="10" rx="5" />
  </g>
  
  <!-- Title and date -->
  <text x="600" y="100" font-family="Arial, sans-serif" font-size="56" font-weight="bold" fill="white" text-anchor="middle">Dev Update</text>
  <text x="600" y="160" font-family="Arial, sans-serif" font-size="32" fill="white" text-anchor="middle">April 22 - April 28, 2025</text>
  
  <!-- Repository list -->
  <g font-family="Arial, sans-serif" fill="white" font-size="36">
    <text x="600" y="280" text-anchor="middle" font-weight="bold">Key Projects:</text>
    <text x="600" y="350" text-anchor="middle">Strawberry Computer</text>
    <text x="600" y="410" text-anchor="middle">web4-deploy</text>
    <text x="600" y="470" text-anchor="middle">vibe-compiler</text>
    <text x="600" y="530" text-anchor="middle">vibe-server</text>
  </g>
  
  <!-- Gradient definition -->
  <defs>
    <linearGradient id="gradient" x1="0" y1="0" x2="1200" y2="628" gradientUnits="userSpaceOnUse">
      <stop offset="0%" stop-color="#6a11cb"/>
      <stop offset="100%" stop-color="#ff4082"/>
    </linearGradient>
  </defs>
</svg>